<svg width="215.03251953125px" height="122.021240234375px" xmlns="http://www.w3.org/2000/svg" viewBox="142.483740234375 13.9893798828125 215.03251953125 122.021240234375" style="background: rgba(0, 0, 0, 0);" preserveAspectRatio="xMidYMid"><defs><filter id="editing-extrusion" x="-100%" y="-100%" width="300%" height="300%"><feFlood result="color1" flood-color="#444"></feFlood><feConvolveMatrix order="8,8" divisor="1" kernelMatrix="1 0 0 0 0 0 0 0 0 1 0 0 0 0 0 0 0 0 1 0 0 0 0 0 0 0 0 1 0 0 0 0 0 0 0 0 1 0 0 0 0 0 0 0 0 1 0 0 0 0 0 0 0 0 1 0 0 0 0 0 0 0 0 1" in="SourceAlpha" result="extrude"></feConvolveMatrix><feComposite in="color1" in2="extrude" result="comp-extrude" operator="in"></feComposite><feOffset dx="4" dy="4" in="comp-extrude" result="offset-extrude"></feOffset><feMerge><feMergeNode in="offset-extrude"></feMergeNode><feMergeNode in="SourceGraphic"></feMergeNode></feMerge></filter></defs><g filter="url(#editing-extrusion)"><g transform="translate(180.4231243133545, 97.39218711853027)"><path d="M29.18 1.28L29.18 1.28L29.18 1.28Q20.99 1.28 20.22-10.37L20.22-10.37L9.22-10.37L9.22-10.37Q7.94-7.42 7.04-4.86L7.04-4.86L5.38 0L-3.58 0L16.58-42.24L30.34-42.24L33.02-11.14L33.02-11.14Q33.66-4.42 36.22-2.43L36.22-2.43L36.22-2.43Q34.37 1.28 29.18 1.28ZM14.72-23.17L11.20-15.04L20.03-15.04L19.26-31.49L19.26-33.22L14.72-23.17ZM41.54-39.68L41.54-39.68L41.54-39.68Q42.43-41.47 44.38-42.46L44.38-42.46L44.38-42.46Q46.34-43.46 49.02-43.46L49.02-43.46L49.02-43.46Q53.25-43.46 55.78-40.42L55.78-40.42L55.78-40.42Q58.30-37.38 58.30-30.72L58.30-30.72L58.30-7.87L72.96-42.18L80.51-42.18L82.24-9.79L82.05-7.94L97.28-42.18L106.05-42.18L85.57 0L71.94 0L70.66-19.46L62.21 0L46.78 0L44.86-30.72L44.86-30.72Q44.67-34.18 43.74-36.45L43.74-36.45L43.74-36.45Q42.82-38.72 41.54-39.68ZM127.94-29.57L127.94-29.57L127.94-29.57Q128.90-31.49 128.90-33.28L128.90-33.28L128.90-33.28Q128.90-35.07 128.70-36.06L128.70-36.06L128.70-36.06Q128.51-37.06 128.06-37.82L128.06-37.82L128.06-37.82Q127.10-39.49 125.18-39.49L125.18-39.49L125.18-39.49Q122.82-39.49 120.90-37.76L120.90-37.76L120.90-37.76Q118.85-35.97 118.85-33.15L118.85-33.15L118.85-33.15Q118.85-31.36 120.10-29.98L120.10-29.98L120.10-29.98Q121.34-28.61 123.26-27.33L123.26-27.33L123.26-27.33Q125.18-26.05 127.36-24.77L127.36-24.77L127.36-24.77Q129.54-23.49 131.46-21.95L131.46-21.95L131.46-21.95Q135.87-18.43 135.87-13.70L135.87-13.70L135.87-13.70Q135.87-10.50 134.18-7.78L134.18-7.78L134.18-7.78Q132.48-5.06 129.66-3.07L129.66-3.07L129.66-3.07Q123.52 1.28 115.39 1.28L115.39 1.28L115.39 1.28Q108.80 1.28 105.41-0.86L105.41-0.86L105.41-0.86Q102.02-3.01 102.02-6.27L102.02-6.27L102.02-6.27Q102.02-12.10 106.56-13.57L106.56-13.57L106.56-13.57Q107.84-14.02 109.79-14.02L109.79-14.02L109.79-14.02Q111.74-14.02 113.98-13.18L113.98-13.18L113.98-13.18Q112.96-10.56 112.96-8.19L112.96-8.19L112.96-8.19Q112.96-3.07 116.61-3.07L116.61-3.07L116.61-3.07Q118.98-3.07 120.93-4.80L120.93-4.80L120.93-4.80Q122.88-6.53 122.88-8.48L122.88-8.48L122.88-8.48Q122.88-10.43 121.63-11.84L121.63-11.84L121.63-11.84Q120.38-13.25 118.53-14.37L118.53-14.37L118.53-14.37Q116.67-15.49 114.53-16.58L114.53-16.58L114.53-16.58Q112.38-17.66 110.53-19.20L110.53-19.20L110.53-19.20Q106.18-22.72 106.18-28.35L106.18-28.35L106.18-28.35Q106.18-32 107.97-34.85L107.97-34.85L107.97-34.85Q109.76-37.70 112.64-39.62L112.64-39.62L112.64-39.62Q118.40-43.52 125.47-43.52L125.47-43.52L125.47-43.52Q132.54-43.52 135.97-41.41L135.97-41.41L135.97-41.41Q139.39-39.30 139.39-35.71L139.39-35.71L139.39-35.71Q139.39-32.58 136.96-30.59L136.96-30.59L136.96-30.59Q134.85-28.93 132.29-28.93L132.29-28.93L132.29-28.93Q129.73-28.93 127.94-29.57Z" fill="#ccc"></path></g></g><style>text {
  font-size: 64px;
  font-family: Arial Black;
  dominant-baseline: central;
  text-anchor: middle;
}</style></svg>